<svg width="70" height="70" viewBox="0 0 70 70" fill="none" xmlns="http://www.w3.org/2000/svg">
<path d="M63.4375 23.3275C63.4375 24.5233 62.4458 25.515 61.25 25.515H8.75C7.55417 25.515 6.5625 24.5233 6.5625 23.3275C6.5625 22.1316 7.55417 21.14 8.75 21.14H11.725L12.8333 15.8608C13.8833 10.7566 16.0708 6.06079 24.7625 6.06079H45.2375C53.9292 6.06079 56.1167 10.7566 57.1667 15.8608L58.275 21.14H61.25C62.4458 21.14 63.4375 22.1316 63.4375 23.3275ZM64.6975 39.8416C64.26 35.0291 62.9767 29.8958 53.6142 29.8958H16.3946C7.03208 29.8958 5.77792 35.0291 5.31125 39.8416L3.67792 57.6041C3.47375 59.8208 4.20292 62.0375 5.71958 63.7C7.26541 65.3916 9.45291 66.3541 11.7862 66.3541H17.2696C21.9946 66.3541 22.8987 63.6416 23.4821 61.8625L24.0654 60.1125C24.7362 58.1 24.9112 57.6041 27.5362 57.6041H42.4696C45.0946 57.6041 45.1821 57.8958 45.9404 60.1125L46.5237 61.8625C47.1071 63.6416 48.0112 66.3541 52.7362 66.3541H58.2196C60.5238 66.3541 62.7404 65.3916 64.2862 63.7C65.8029 62.0375 66.5321 59.8208 66.3279 57.6041L64.6975 39.8416ZM26.2558 45.9375H17.5058C16.31 45.9375 15.3183 44.9458 15.3183 43.75C15.3183 42.5541 16.31 41.5625 17.5058 41.5625H26.2558C27.4517 41.5625 28.4433 42.5541 28.4433 43.75C28.4433 44.9458 27.4517 45.9375 26.2558 45.9375ZM52.5058 45.9375H43.7558C42.56 45.9375 41.5683 44.9458 41.5683 43.75C41.5683 42.5541 42.56 41.5625 43.7558 41.5625H52.5058C53.7017 41.5625 54.6933 42.5541 54.6933 43.75C54.6933 44.9458 53.7017 45.9375 52.5058 45.9375Z" fill="#FF7009"/>
</svg>
