<svg width="80" height="80" viewBox="0 0 80 80" fill="none" xmlns="http://www.w3.org/2000/svg">
<path d="M15.8333 10C13.4022 10 11.0706 10.9658 9.35152 12.6849C7.63244 14.4039 6.66667 16.7355 6.66667 19.1667V36.6667C9.31883 33.1304 13.2671 30.7926 17.643 30.1675C22.0188 29.5424 26.4638 30.6812 30 33.3333C33.5362 35.9855 35.874 39.9338 36.4992 44.3096C37.1243 48.6855 35.9855 53.1304 33.3333 56.6667V60H64.1667C66.5978 60 68.9294 59.0342 70.6485 57.3151C72.3676 55.5961 73.3333 53.2645 73.3333 50.8333V19.1667C73.3333 16.7355 72.3676 14.4039 70.6485 12.6849C68.9294 10.9658 66.5978 10 64.1667 10H15.8333ZM22.5 23.3333H57.5C58.163 23.3333 58.7989 23.5967 59.2678 24.0656C59.7366 24.5344 60 25.1703 60 25.8333C60 26.4964 59.7366 27.1323 59.2678 27.6011C58.7989 28.0699 58.163 28.3333 57.5 28.3333H22.5C21.837 28.3333 21.2011 28.0699 20.7322 27.6011C20.2634 27.1323 20 26.4964 20 25.8333C20 25.1703 20.2634 24.5344 20.7322 24.0656C21.2011 23.5967 21.837 23.3333 22.5 23.3333ZM40 42.5C40 41.837 40.2634 41.2011 40.7322 40.7322C41.2011 40.2634 41.837 40 42.5 40H57.5C58.163 40 58.7989 40.2634 59.2678 40.7322C59.7366 41.2011 60 41.837 60 42.5C60 43.163 59.7366 43.7989 59.2678 44.2678C58.7989 44.7366 58.163 45 57.5 45H42.5C41.837 45 41.2011 44.7366 40.7322 44.2678C40.2634 43.7989 40 43.163 40 42.5ZM20 33.3333C16.4633 33.3333 13.0715 34.7383 10.5707 37.2391C8.06993 39.7399 6.665 43.1317 6.665 46.6683C6.665 50.205 8.06993 53.5968 10.5707 56.0976C13.0715 58.5984 16.4633 60.0033 20 60.0033C23.5367 60.0033 26.9285 58.5984 29.4293 56.0976C31.9301 53.5968 33.335 50.205 33.335 46.6683C33.335 43.1317 31.9301 39.7399 29.4293 37.2391C26.9285 34.7383 23.5367 33.3333 20 33.3333ZM30 60.0033C27.2167 62.0967 23.7533 63.3367 20 63.3367C16.3937 63.3439 12.8833 62.1761 10 60.01V70.83C10 72.73 12.0167 73.8967 13.6333 73.06L13.9333 72.8767L20 68.6367L26.0667 72.8767C26.417 73.1213 26.8242 73.2721 27.2494 73.3145C27.6746 73.357 28.1036 73.2898 28.4954 73.1193C28.8873 72.9488 29.2289 72.6807 29.4876 72.3406C29.7463 72.0005 29.9135 71.5998 29.9733 71.1767L30 70.83L30.0033 60L30 60.0033Z" fill="#FF7009"/>
</svg>
