<svg width="70" height="70" viewBox="0 0 70 70" fill="none" xmlns="http://www.w3.org/2000/svg">
<path d="M58.3333 34.9999V52.4999C58.3333 58.9458 53.1125 64.1666 46.6667 64.1666H23.3333C16.8875 64.1666 11.6667 58.9458 11.6667 52.4999V34.9999C11.6667 33.3958 12.9792 32.0833 14.5833 32.0833H20.3292C21.9333 32.0833 23.2458 33.3958 23.2458 34.9999V44.1583C23.2489 45.7071 23.8635 47.1921 24.956 48.29C26.0484 49.388 27.5303 50.01 29.0792 50.0207C30.1875 50.0207 31.2958 49.6999 32.2583 49.0583L35.0292 47.2499L37.5958 48.9708C39.375 50.1666 41.65 50.3124 43.5458 49.2916C45.4708 48.2707 46.6667 46.3166 46.6667 44.1291V34.9999C46.6667 33.3958 47.9792 32.0833 49.5833 32.0833H55.4167C57.0208 32.0833 58.3333 33.3958 58.3333 34.9999ZM62.7083 20.4166V23.3333C62.7083 26.5416 61.1625 29.1666 56.875 29.1666H13.125C8.66249 29.1666 7.29166 26.5416 7.29166 23.3333V20.4166C7.29166 17.2083 8.66249 14.5833 13.125 14.5833H56.875C61.1625 14.5833 62.7083 17.2083 62.7083 20.4166Z" fill="#FF7009"/>
<path d="M33.9471 14.5863H17.8471C17.3675 14.0662 17.1086 13.3802 17.1249 12.6728C17.1412 11.9655 17.4315 11.2922 17.9346 10.7947L22.0762 6.65301C22.6004 6.13469 23.3078 5.84399 24.045 5.84399C24.7822 5.84399 25.4896 6.13469 26.0137 6.65301L33.9471 14.5863ZM52.1267 14.5863H36.0267L43.96 6.65301C44.4842 6.13469 45.1916 5.84399 45.9287 5.84399C46.6659 5.84399 47.3733 6.13469 47.8975 6.65301L52.0392 10.7947C53.0892 11.8447 53.1183 13.5072 52.1267 14.5863ZM40.7487 32.0834C42.3529 32.0834 43.6654 33.3959 43.6654 35.0001V44.1293C43.6654 46.4626 41.0696 47.8626 39.1446 46.5501L36.5196 44.8001C36.0433 44.4865 35.4856 44.3193 34.9154 44.3193C34.3452 44.3193 33.7875 44.4865 33.3112 44.8001L30.5696 46.6084C28.6446 47.8918 26.0779 46.4918 26.0779 44.1876V35.0001C26.0779 33.3959 27.3904 32.0834 28.9946 32.0834H40.7487Z" fill="#FF7009"/>
</svg>
