<svg width="30" height="30" viewBox="0 0 30 30" fill="none" xmlns="http://www.w3.org/2000/svg">
<path d="M25.7762 10.5625C24.4637 4.7875 19.4262 2.1875 15.0012 2.1875H14.9887C10.5762 2.1875 5.52625 4.775 4.21375 10.55C2.75125 17 6.70125 22.4625 10.2762 25.9C11.5434 27.1265 13.2377 27.8123 15.0012 27.8125C16.7012 27.8125 18.4012 27.175 19.7137 25.9C23.2887 22.4625 27.2387 17.0125 25.7762 10.5625ZM15.0012 16.825C14.4842 16.825 13.9722 16.7232 13.4944 16.5253C13.0167 16.3274 12.5826 16.0374 12.217 15.6717C11.8514 15.3061 11.5614 14.872 11.3635 14.3943C11.1656 13.9166 11.0637 13.4046 11.0637 12.8875C11.0637 12.3704 11.1656 11.8584 11.3635 11.3807C11.5614 10.903 11.8514 10.4689 12.217 10.1033C12.5826 9.73764 13.0167 9.4476 13.4944 9.24972C13.9722 9.05185 14.4842 8.95 15.0012 8.95C16.0455 8.95 17.0471 9.36484 17.7855 10.1033C18.5239 10.8417 18.9387 11.8432 18.9387 12.8875C18.9387 13.9318 18.5239 14.9333 17.7855 15.6717C17.0471 16.4102 16.0455 16.825 15.0012 16.825Z" fill="#DAD8D8"/>
</svg>
