<svg width="150" height="150" viewBox="0 0 150 150" fill="none" xmlns="http://www.w3.org/2000/svg">
<path d="M34 49.75L37.25 46.4375C40.875 42.8125 46.875 42.8125 50.625 46.6875L50.75 46.875C53.8125 50 57.875 51.5 62.3125 51.9375C68.375 52.5 74.25 55.75 78.125 61.625C82.375 68.375 82.3125 77.375 77.875 84.0625C76.2013 86.7093 73.9505 88.9431 71.2912 90.5969C68.632 92.2506 65.633 93.2814 62.519 93.6121C59.4049 93.9427 56.2564 93.5646 53.3091 92.5062C50.3618 91.4477 47.6922 89.7363 45.5 87.5C42 84.0625 40 79.625 39.5 75C39 70.4375 37.1875 66.125 34 62.9375C30.375 59.375 30.375 53.375 34 49.75ZM60.25 100C52.9375 100 46.125 97.1875 41.0625 92C36.6875 87.5 33.9375 81.875 33.25 75.75C33.0625 73.875 32.5 71.4375 31 69.1875C27.25 74.375 25 80.625 25 87.5C25 97.75 30 106.812 37.6875 112.5H118.75V106.25C118.75 83.75 103.813 64.6875 83.375 58.4375C88.9375 67.1875 88.8125 78.875 83.125 87.5C78.125 95.3125 69.5 100 60.25 100ZM92.375 47.25H100.312C105.75 47.25 110.5 51.0625 110.5 57.875V62.5H118.312V56.25C118.312 46.875 110 39.75 100.312 39.75H92.375C87.1875 39.75 82.75 34.625 82.75 29.375C82.75 24.125 87.1875 20.25 92.375 20.25V12.5C82.75 12.5 75 20.25 75 29.875C75 39.5 82.75 47.25 92.375 47.25ZM28.125 47.1875C28.5 46.5625 29 45.9375 29.5625 45.3125L32.8125 42.0625C33.375 41.5 34 41.0625 34.625 40.625L25.8125 31.6875C26.6875 30 26.375 27.8125 25 26.375C24.105 25.5038 22.9053 25.0163 21.6562 25.0163C20.4072 25.0163 19.2075 25.5038 18.3125 26.375C17.4375 27.25 17 28.3125 16.9375 29.4375C15.8125 29.5 14.75 29.9375 13.875 30.8125C12.0625 32.625 12.0625 35.625 13.875 37.5C15.3125 38.875 17.4375 39.1875 19.1875 38.3125L28.125 47.1875ZM114.937 27.4375C118.125 24.25 120.125 19.9375 120.125 15.125H112.312C112.312 20.3125 107.938 24.6875 102.75 24.6875V32.4375C114.375 32.4375 123.5 41.9375 123.5 53.5625V68.75H131.25V53.5625C131.281 48.1107 129.765 42.7619 126.877 38.1374C123.99 33.513 119.85 29.8027 114.937 27.4375ZM31.25 131.25H118.75C125.687 131.25 131.25 125.688 131.25 118.75H18.75C18.75 122.065 20.067 125.245 22.4112 127.589C24.7554 129.933 27.9348 131.25 31.25 131.25Z" fill="#FF7009"/>
</svg>
