<svg width="150" height="150" viewBox="0 0 150 150" fill="none" xmlns="http://www.w3.org/2000/svg">
<path d="M119.812 41.5C117.125 27.9375 107.062 22 93.0625 22H38.1875C21.6875 22 10.6875 30.25 10.6875 49.5V81.6875C10.6875 95.5625 16.375 103.687 25.75 107.187C27.125 107.687 28.625 108.125 30.1875 108.375C32.6875 108.938 35.375 109.187 38.1875 109.187H93.125C109.625 109.187 120.625 100.937 120.625 81.6875V49.5C120.625 46.5625 120.375 43.9375 119.812 41.5ZM34.5625 75C34.5625 77.5625 32.4375 79.6875 29.875 79.6875C27.3125 79.6875 25.1875 77.5625 25.1875 75V56.25C25.1875 53.6875 27.3125 51.5625 29.875 51.5625C32.4375 51.5625 34.5625 53.6875 34.5625 56.25V75ZM65.625 82.125C56.5 82.125 49.125 74.75 49.125 65.625C49.125 56.5 56.5 49.125 65.625 49.125C74.75 49.125 82.125 56.5 82.125 65.625C82.125 74.75 74.75 82.125 65.625 82.125ZM106 75C106 77.5625 103.875 79.6875 101.312 79.6875C98.75 79.6875 96.625 77.5625 96.625 75V56.25C96.625 53.6875 98.75 51.5625 101.312 51.5625C103.875 51.5625 106 53.6875 106 56.25V75Z" fill="#FF7009"/>
<path d="M139.387 68.2375V100.425C139.387 119.675 128.388 127.988 111.825 127.988H56.95C52.2625 127.988 48.075 127.3 44.45 125.925C41.5125 124.863 38.95 123.3 36.8875 121.3C35.7625 120.238 36.6375 118.55 38.2 118.55H93.075C116.2 118.55 129.95 104.8 129.95 81.7375V49.4875C129.95 47.9875 131.638 47.05 132.7 48.175C136.95 52.675 139.387 59.2375 139.387 68.2375Z" fill="#08126B"/>
</svg>
