<svg width="150" height="150" viewBox="0 0 150 150" fill="none" xmlns="http://www.w3.org/2000/svg">
<path d="M118.375 33.8813L86.0625 15.1938C79.875 11.6313 70.1875 11.6313 64 15.1938L31.375 34.0063C18.4375 42.7563 17.6875 44.0688 17.6875 58.0063V91.9438C17.6875 105.881 18.4375 107.256 31.625 116.131L63.9375 134.819C67.0625 136.631 71.0625 137.506 75 137.506C78.9375 137.506 82.9375 136.631 86 134.819L118.625 116.006C131.562 107.256 132.312 105.944 132.312 92.0063V58.0063C132.312 44.0688 131.562 42.7563 118.375 33.8813ZM75 95.3188C63.8125 95.3188 54.6875 86.1938 54.6875 75.0063C54.6875 63.8188 63.8125 54.6938 75 54.6938C86.1875 54.6938 95.3125 63.8188 95.3125 75.0063C95.3125 86.1938 86.1875 95.3188 75 95.3188Z" fill="#FF7009"/>
</svg>
