<svg width="30" height="30" viewBox="0 0 30 30" fill="none" xmlns="http://www.w3.org/2000/svg">
<path d="M27.475 14.2626C27.05 7.01257 20.4625 1.42507 12.875 2.67507C7.65 3.53757 3.4625 7.77507 2.65 13.0001C2.175 16.0251 2.8 18.8876 4.1625 21.2501L3.05 25.3876C2.8 26.3251 3.6625 27.1751 4.5875 26.9126L8.6625 25.7876C10.5125 26.8751 12.675 27.5001 14.9875 27.5001C22.0375 27.5001 27.8875 21.2876 27.475 14.2626ZM21.1 19.6501C20.7985 20.2685 20.2835 20.7569 19.65 21.0251C19.275 21.1876 18.8625 21.2626 18.425 21.2626C17.7875 21.2626 17.1 21.1126 16.3875 20.8001C15.6281 20.4667 14.9072 20.0517 14.2375 19.5626C13.5125 19.0376 12.8375 18.4501 12.1875 17.8126C11.5375 17.1626 10.9625 16.4751 10.4375 15.7626C9.925 15.0501 9.5125 14.3376 9.2125 13.6251C8.9125 12.9126 8.7625 12.2251 8.7625 11.5751C8.7625 11.1501 8.8375 10.7376 8.9875 10.3626C9.1375 9.97507 9.375 9.62507 9.7125 9.31257C10.1125 8.91257 10.55 8.72507 11.0125 8.72507C11.1875 8.72507 11.3625 8.76257 11.525 8.83757C11.6875 8.91257 11.8375 9.02507 11.95 9.18757L13.4 11.2376C13.5125 11.4001 13.6 11.5376 13.65 11.6751C13.7125 11.8126 13.7375 11.9376 13.7375 12.0626C13.7375 12.2126 13.6875 12.3626 13.6 12.5126C13.5125 12.6626 13.4 12.8126 13.25 12.9626L12.775 13.4626C12.7 13.5376 12.675 13.6126 12.675 13.7126C12.675 13.7626 12.6875 13.8126 12.7 13.8626C12.725 13.9126 12.7375 13.9501 12.75 13.9876C12.8625 14.2001 13.0625 14.4626 13.3375 14.7876C13.9227 15.4753 14.5623 16.1148 15.25 16.7001C15.575 16.9751 15.85 17.1626 16.0625 17.2751C16.1 17.2876 16.1375 17.3126 16.175 17.3251C16.225 17.3501 16.275 17.3501 16.3375 17.3501C16.45 17.3501 16.525 17.3126 16.6 17.2376L17.075 16.7626C17.2375 16.6001 17.3875 16.4876 17.525 16.4126C17.675 16.3251 17.8125 16.2751 17.975 16.2751C18.1 16.2751 18.225 16.3001 18.3625 16.3626C18.5 16.4251 18.65 16.5001 18.8 16.6126L20.875 18.0876C21.0375 18.2001 21.15 18.3376 21.225 18.4876C21.2875 18.6501 21.325 18.8001 21.325 18.9751C21.25 19.1876 21.2 19.4251 21.1 19.6501Z" fill="#DAD8D8"/>
</svg>
